<svg width="180" height="180" viewBox="0 0 180 180" fill="none" xmlns="http://www.w3.org/2000/svg">
  <rect width="180" height="180" rx="22" fill="#030303"/>
  <circle cx="90" cy="90" r="56" fill="#FF6B35"/>
  <path d="M90 52C82 52 71 60 71 75C71 90 82 98 82 98C82 98 78 102 78 109C78 117 82 124 90 124C98 124 102 117 102 109C102 102 98 98 98 98C98 98 109 90 109 75C109 60 98 52 90 52Z" fill="#030303"/>
  <circle cx="81" cy="71" r="5.5" fill="#FAFAFA"/>
  <circle cx="99" cy="71" r="5.5" fill="#FAFAFA"/>
  <path d="M82 86C82 86 86 94 90 94C94 94 98 86 98 86" stroke="#FAFAFA" stroke-width="3.5" stroke-linecap="round"/>
  <text x="90" y="152" text-anchor="middle" font-family="system-ui" font-size="15" font-weight="bold" fill="#FF6B35">PF</text>
</svg>
