<svg width="32" height="32" viewBox="0 0 32 32" fill="none" xmlns="http://www.w3.org/2000/svg">
  <rect width="32" height="32" rx="4" fill="#030303"/>
  <circle cx="16" cy="16" r="10" fill="#FF6B35"/>
  <path d="M16 9.3C14.7 9.3 12.7 10.7 12.7 13.3C12.7 16 14.7 17.3 14.7 17.3C14.7 17.3 14 18 14 19.3C14 20.7 14.7 22 16 22C17.3 22 18 20.7 18 19.3C18 18 17.3 17.3 17.3 17.3C17.3 17.3 19.3 16 19.3 13.3C19.3 10.7 17.3 9.3 16 9.3Z" fill="#030303"/>
  <circle cx="14.3" cy="12.7" r="1" fill="#FAFAFA"/>
  <circle cx="17.7" cy="12.7" r="1" fill="#FAFAFA"/>
</svg>
