<svg width="512" height="512" viewBox="0 0 512 512" fill="none" xmlns="http://www.w3.org/2000/svg">
  <rect width="512" height="512" rx="64" fill="#030303"/>
  <circle cx="256" cy="256" r="160" fill="#FF6B35"/>
  <path d="M256 149C235 149 203 170 203 213C203 256 235 277 235 277C235 277 224 288 224 309C224 331 235 352 256 352C277 352 288 331 288 309C288 288 277 277 277 277C277 277 309 256 309 213C309 170 277 149 256 149Z" fill="#030303"/>
  <circle cx="229 " cy="203" r="16" fill="#FAFAFA"/>
  <circle cx="283" cy="203" r="16" fill="#FAFAFA"/>
  <path d="M235 245C235 245 245 267 256 267C267 267 277 245 277 245" stroke="#FAFAFA" stroke-width="10" stroke-linecap="round"/>
  <text x="256" y="440" text-anchor="middle" font-family="system-ui" font-size="42" font-weight="bold" fill="#FF6B35">PeopleFirst</text>
</svg>
