<svg width="192" height="192" viewBox="0 0 192 192" fill="none" xmlns="http://www.w3.org/2000/svg">
  <rect width="192" height="192" rx="24" fill="#030303"/>
  <circle cx="96" cy="96" r="60" fill="#FF6B35"/>
  <path d="M96 56C88 56 76 64 76 80C76 96 88 104 88 104C88 104 84 108 84 116C84 124 88 132 96 132C104 132 108 124 108 116C108 108 104 104 104 104C104 104 116 96 116 80C116 64 104 56 96 56Z" fill="#030303"/>
  <circle cx="86" cy="76" r="6" fill="#FAFAFA"/>
  <circle cx="106" cy="76" r="6" fill="#FAFAFA"/>
  <path d="M88 92C88 92 92 100 96 100C100 100 104 92 104 92" stroke="#FAFAFA" stroke-width="4" stroke-linecap="round"/>
  <text x="96" y="160" text-anchor="middle" font-family="system-ui" font-size="16" font-weight="bold" fill="#FF6B35">PF</text>
</svg>
